<?xml version="1.0" encoding="utf-8"?>
<!-- Generator: Adobe Illustrator 27.0.1, SVG Export Plug-In . SVG Version: 6.00 Build 0)  -->
<svg version="1.1" id="Layer_1" xmlns="http://www.w3.org/2000/svg" xmlns:xlink="http://www.w3.org/1999/xlink" x="0px" y="0px"
	 viewBox="0 0 32 32" style="enable-background:new 0 0 32 32;" xml:space="preserve">
<style type="text/css">
	.st0{fill:#404040;}
</style>
<rect y="0" width="32" height="32"/>
<g>
	<path class="st0" d="M8.4,13.8c0,0,12.9,3.4,14.3,4.7s4.5,4.2,4.5,5.2c0,1,0.6,1.4,1.2,0.3c0.7-1.1,0.3-1.6-0.5-1.5
		c-0.8,0.1-1.9-2.8-4.7-4.6c-2.8-1.8-10.1-3.2-11.8-4.3S9.5,10.5,10,9.1L9.6,8.9L9.2,9.7L8.8,9.9l-0.1,0.5L8,10.8c0,0-0.5,2,0,2.7
		C8.6,14.1,8.4,13.8,8.4,13.8z"/>
	<path class="st0" d="M27.6,24.8c0,0-0.1,0-0.1,0c-0.3-0.1-0.5-0.5-0.5-1c0-0.8-2.4-3.3-4.4-5.1C21.3,17.5,10,14.4,8.5,14
		c0,0,0,0,0,0c-0.1,0.1-0.1,0.1-0.5-0.5c-0.6-0.7,0-2.7,0-2.8l0-0.1l0.7-0.4l0.1-0.5l0.4-0.2l0.4-0.9l0.7,0.4l0,0.1
		c-0.6,1.4-0.3,3.4,1.2,4.3c0.7,0.4,2.4,0.9,4.4,1.5c2.7,0.8,5.8,1.7,7.4,2.8c1.6,1,2.6,2.4,3.4,3.4c0.5,0.7,0.9,1.2,1.2,1.2
		c0,0,0,0,0,0c0.4-0.1,0.7,0,0.9,0.3c0.1,0.2,0.2,0.6-0.2,1.4C28.1,24.7,27.8,24.8,27.6,24.8z M8.4,13.7c0.6,0.2,12.9,3.4,14.3,4.7
		c1.1,1,4.5,4.2,4.5,5.3c0,0.5,0.1,0.8,0.3,0.8c0.2,0,0.4-0.2,0.7-0.6c0.3-0.5,0.4-0.9,0.2-1.2c-0.1-0.2-0.3-0.2-0.6-0.2
		c-0.4,0.1-0.8-0.5-1.5-1.3c-0.7-1-1.8-2.3-3.3-3.3c-1.6-1-4.6-1.9-7.3-2.7c-2-0.6-3.7-1.1-4.4-1.5c-1.7-1-1.9-3-1.4-4.5L9.6,9.1
		L9.3,9.8L9,10l-0.1,0.5l-0.7,0.4c-0.1,0.6-0.4,2,0,2.5C8.3,13.6,8.4,13.7,8.4,13.7z"/>
</g>
<g>
	<path class="st0" d="M7.6,22.8C7.2,22.6,7.1,22.3,7,21c-0.1-1.3,1.3-7.3,1.4-7.6l0.5,0.1C8.4,15.7,7.4,20,7.5,21
		c0.1,1.2,0.2,1.3,0.3,1.4L7.6,22.8z"/>
</g>
<g>
	<polygon class="st0" points="7.4,22.9 7.9,20.4 15.1,22.7 14.8,24.7 	"/>
</g>
<g>
	<polygon class="st0" points="9.5,19.7 9.3,21.2 14.8,22.9 15.1,21.5 	"/>
</g>
<g>
	<polygon class="st0" points="10.2,19 10,20.3 15.4,21.7 15.5,21 	"/>
</g>
<g>
	<polygon class="st0" points="8.4,17 8.3,18.4 15.5,21 15.7,20 	"/>
</g>
<g>
	<polygon class="st0" points="9.3,16.8 9.1,17.7 15.7,20 15.7,18.8 	"/>
</g>
<g>
	<line class="st0" x1="17.8" y1="11.2" x2="15.3" y2="25.5"/>
	<rect x="9.3" y="18" transform="matrix(0.1693 -0.9856 0.9856 0.1693 -4.3239 31.5607)" class="st0" width="14.5" height="0.7"/>
</g>
<g>
	<line class="st0" x1="15.4" y1="19.5" x2="16.2" y2="19.8"/>
	<polygon class="st0" points="16.2,19.9 15.4,19.6 15.5,19.3 16.3,19.7 	"/>
</g>
<g>
	<line class="st0" x1="15.2" y1="20.9" x2="16" y2="21"/>
	<polygon class="st0" points="16,21.1 15.2,21 15.3,20.7 16,20.8 	"/>
</g>
<g>
	<line class="st0" x1="14.7" y1="23.1" x2="15.6" y2="23.1"/>
	<rect x="14.7" y="23" class="st0" width="0.9" height="0.2"/>
</g>
<g>
	<polygon class="st0" points="16.5,18.3 8.1,15.6 8.2,15.4 16.6,18.1 	"/>
</g>
<g>
	<path class="st0" d="M24.3,22.6c0,0-1.1-1.2-1.9-1.9c-0.8-0.7-5.8-2.2-5.9-2.2l0.1-0.2c0.2,0.1,5.2,1.6,6,2.3
		c0.8,0.7,1.9,1.9,1.9,1.9L24.3,22.6z"/>
</g>
<g>
	<path class="st0" d="M22.1,20.5c0,0-0.1-0.4,0-1.1c0.1-0.7,0.5-1.3,0.5-1.3l0.2,0.1c0,0-0.4,0.6-0.5,1.2c-0.1,0.6,0,1,0,1
		L22.1,20.5z"/>
</g>
<g>
	<path class="st0" d="M21.5,17.5l0-0.2c0.1,0,1.3-0.2,1.5-1.8c0.2-1.5,0.1-3.1,0.1-3.3c-0.1-0.1-0.4-0.6-0.7-0.7
		c-0.6-0.1-0.6-1-0.6-1l0.2,0c0,0,0,0.7,0.4,0.8c0.5,0.1,0.9,0.8,0.9,0.8l0,0.1c0,0,0.1,1.7-0.1,3.4C23,17.2,21.5,17.5,21.5,17.5z"
		/>
</g>
<g>
	<line class="st0" x1="9.7" y1="9.3" x2="10.5" y2="8.5"/>
	<rect x="9.5" y="8.5" transform="matrix(0.7283 -0.6853 0.6853 0.7283 -3.3691 9.3302)" class="st0" width="1.1" height="0.7"/>
</g>
<g>
	<line class="st0" x1="10.3" y1="8.7" x2="17.8" y2="11.2"/>
	<polygon class="st0" points="17.7,11.3 10.3,8.8 10.4,8.6 17.8,11.1 	"/>
</g>
<g>
	<polygon class="st0" points="12.7,17 12.5,16.9 13.2,14.8 13.4,14.8 	"/>
</g>
<g>
	<path class="st0" d="M12.9,14.5l-0.2,0c0-0.3,1-6.8,1.6-8c0.6-1.2,1.9-2.6,3.6-2.7c1.5-0.1,3.3,1.2,3.7,1.4l0,0
		c0.1,0,0.2,0.1,0.2,1c0,0.4,0.2,0.7,0.4,1c0.3,0.3,0.6,0.7,0.6,1.5c0.1,1.5-0.7,1.9-0.7,1.9l0,0l0,0c0,0-3.1,0-3.5,0
		c-0.2,0-0.3,0.5-0.4,0.8l-0.2,0c0-0.1,0.1-1,0.6-1c0.4,0,3.1,0,3.5,0c0.1-0.1,0.6-0.5,0.6-1.7c0-0.7-0.3-1-0.6-1.4
		c-0.2-0.3-0.5-0.6-0.5-1.1c0-0.5,0-0.7,0-0.7l0,0c0,0-2-1.5-3.5-1.4c-1.6,0.1-2.8,1.5-3.4,2.6C13.9,7.8,12.9,14.5,12.9,14.5z"/>
</g>
<g>
	<path class="st0" d="M21.6,25.3c-1,0-1.7-0.4-2.4-0.7c-0.3-0.1-0.5-0.2-0.7-0.3c-0.9-0.3-2.8-0.8-2.9-0.8l0.1-0.2
		c0,0,2,0.5,2.9,0.8c0.2,0.1,0.5,0.2,0.8,0.3c0.8,0.4,1.7,0.8,3,0.6c1-0.2,1.3-1,1.7-2c0.2-0.6,0.5-1.2,0.9-1.7
		c0.3-0.4,0.6-0.5,0.8-0.7c0.5-0.3,0.9-0.6,2.1-3.1c1.6-3.5-0.7-9-0.9-9.5c-0.3-0.2-3.2-2.5-4.3-2.5l-1.2,0l0-0.2l1.2,0
		c1.3,0,4.4,2.5,4.5,2.6l0,0c0.1,0.2,2.5,6,0.9,9.7c-1.2,2.6-1.6,2.9-2.2,3.2c-0.2,0.1-0.5,0.3-0.8,0.6c-0.4,0.4-0.7,1.1-0.9,1.6
		c-0.4,0.9-0.7,1.9-1.9,2.1C22.1,25.3,21.9,25.3,21.6,25.3z"/>
</g>
<g>
	<path class="st0" d="M27.2,13.4l-0.2-0.1c0,0-1.1-0.4-2.4-0.8c-1.2-0.4-1.5-0.3-1.5-0.3L23.1,12c0.1,0,0.4-0.2,1.7,0.2
		c1,0.4,1.9,0.7,2.2,0.8c0-0.2,0.1-0.4,0.3-0.7c0.3-0.5,1-0.3,1.1-0.2l-0.1,0.2c0,0-0.6-0.2-0.8,0.1c-0.2,0.4-0.2,0.7-0.2,0.7
		L27.2,13.4z"/>
</g>
<g>
	<path class="st0" d="M25.6,20.4l-0.1-0.2c1.1-0.8,2.4-4.6,2.5-5.1c0,0-0.1,0-0.2,0c-0.2-0.1-0.4-0.1-0.5-0.3
		c-0.1-0.2-0.2-1.3-0.3-1.6l0.2,0c0.1,0.6,0.2,1.4,0.2,1.5c0,0.1,0.2,0.1,0.4,0.2c0.2,0.1,0.3,0.1,0.4,0.2
		C28.3,15.3,26.9,19.6,25.6,20.4z"/>
</g>
<g>
	<path class="st0" d="M27.5,16.9c0,0-1.5-0.8-2.5-0.4L25,16.3c1.1-0.4,2.6,0.4,2.7,0.4L27.5,16.9z"/>
</g>
<g>
	<path class="st0" d="M25.4,12.6l-0.2,0c0-0.1,0.4-2.2,0.5-2.8c0.1-0.3,0.3-0.5,0.5-0.7c0.2-0.2,0.3-0.3,0.3-0.5
		c0-0.1-0.2-0.4-0.6-0.7c-0.6-0.4-1.2-0.7-1.3-0.6c-0.2,0.2-0.5,2.6-0.8,4.9l-0.2,0c0.2-2.3,0.5-5,0.9-5.1c0.3-0.1,1.1,0.3,1.6,0.7
		c0.3,0.2,0.7,0.6,0.7,0.9c0,0.3-0.2,0.5-0.4,0.7c-0.2,0.2-0.4,0.3-0.4,0.6C25.7,10.4,25.4,12.6,25.4,12.6z"/>
</g>
</svg>
