<?xml version="1.0" encoding="utf-8"?>
<!-- Generator: Adobe Illustrator 27.0.1, SVG Export Plug-In . SVG Version: 6.00 Build 0)  -->
<svg version="1.1" id="Layer_1" xmlns="http://www.w3.org/2000/svg" xmlns:xlink="http://www.w3.org/1999/xlink" x="0px" y="0px"
	 viewBox="0 0 392 72" style="enable-background:new 0 0 392 72;" xml:space="preserve">
<style type="text/css">
	.st0{fill:#F0F0A0;}
	.st1{fill:#F0F040;}
	.st2{fill:#FFA0A0;}
	.st3{fill:#FFFFFF;}
	.st4{fill:#F080F0;}
</style>
<g>
	<path class="st0" d="M24,0H0v64h16V48h8c13.2,0,24-10.8,24-24S37.2,0,24,0z M24,32h-8V16h8c4.4,0,8,3.6,8,8S28.4,32,24,32z"/>
	<path class="st1" d="M126,40l21.5,10.7c-4,7.9-12.1,13.3-21.5,13.3c-13.2,0-24-10.8-24-24s10.8-24,24-24c9.4,0,17.5,5.4,21.5,13.3
		L126,40z"/>
	<g>
		<path class="st2" d="M98,36v32l-8-8l-8,8l-8-8l-8,8l-8-8l-8,8V36c0-13.2,10.8-24,24-24S98,22.8,98,36z"/>
		<circle class="st3" cx="64" cy="36" r="8"/>
		<circle class="st3" cx="84" cy="36" r="8"/>
		<circle cx="86" cy="36" r="6"/>
		<circle cx="66" cy="36" r="6"/>
	</g>
	<polygon class="st0" points="208,0 208,64 192,64 192,38.6 191.3,39.3 180,50.6 168,38.6 168,64 152,64 152,0 180,28 	"/>
	<g>
		<path class="st4" d="M262,36v32l-8-8l-8,8l-8-8l-8,8l-8-8l-8,8V36c0-13.2,10.8-24,24-24S262,22.8,262,36z"/>
		<g>
			<path class="st3" d="M244.4,53c-2.1,0-3.1-1.3-4-2.4c-0.8-1-1.4-1.6-2.4-1.6s-1.6,0.6-2.4,1.6c-0.8,1.1-1.9,2.4-4,2.4
				c-2.3,0-3.3-2.5-4.1-4.6c-0.6-1.6-1.3-3.4-2.3-3.4c-2.2,0-2.2,2.9-2.2,3c0,0.6-0.4,1-1,1s-1-0.4-1-1c0-1.7,0.9-5,4.2-5
				c2.3,0,3.3,2.5,4.1,4.6c0.6,1.6,1.3,3.4,2.3,3.4c1.1,0,1.6-0.6,2.4-1.6c0.8-1.1,1.9-2.4,4-2.4s3.1,1.3,4,2.4
				c0.8,1,1.4,1.6,2.4,1.6c0.9,0,1.6-1.8,2.3-3.4c0.9-2.2,1.9-4.6,4.1-4.6c3.3,0,4.2,3.3,4.2,5c0,0.6-0.4,1-1,1s-1-0.4-1-1
				c0-0.3-0.1-3-2.2-3c-0.9,0-1.6,1.8-2.3,3.4C247.7,50.5,246.7,53,244.4,53z"/>
		</g>
		<g>
			<path class="st3" d="M234.7,35.3c0.4,0.4,0.4,1,0,1.4c-0.2,0.2-0.5,0.3-0.7,0.3s-0.5-0.1-0.7-0.3l-3.3-3.3l-3.3,3.3
				c-0.2,0.2-0.5,0.3-0.7,0.3s-0.5-0.1-0.7-0.3c-0.4-0.4-0.4-1,0-1.4l3.3-3.3l-3.3-3.3c-0.4-0.4-0.4-1,0-1.4s1-0.4,1.4,0l3.3,3.3
				l3.3-3.3c0.4-0.4,1-0.4,1.4,0s0.4,1,0,1.4l-3.3,3.3L234.7,35.3z"/>
		</g>
		<g>
			<path class="st3" d="M250.7,35.3c0.4,0.4,0.4,1,0,1.4c-0.2,0.2-0.5,0.3-0.7,0.3s-0.5-0.1-0.7-0.3l-3.3-3.3l-3.3,3.3
				c-0.2,0.2-0.5,0.3-0.7,0.3s-0.5-0.1-0.7-0.3c-0.4-0.4-0.4-1,0-1.4l3.3-3.3l-3.3-3.3c-0.4-0.4-0.4-1,0-1.4s1-0.4,1.4,0l3.3,3.3
				l3.3-3.3c0.4-0.4,1-0.4,1.4,0s0.4,1,0,1.4l-3.3,3.3L250.7,35.3z"/>
		</g>
	</g>
	<path class="st0" d="M296.9,44h16.7c-1.9,11.3-11.8,20-23.7,20c-13.2,0-24-10.8-24-24s10.8-24,24-24c11.9,0,21.8,8.6,23.7,20h-16.7
		c-1.4-2.4-4-4-6.9-4c-4.4,0-8,3.6-8,8s3.6,8,8,8C293,48,295.5,46.4,296.9,44z"/>
	<path class="st0" d="M342,16v16h-8v32h-16V32c0-8.8,7.2-16,16-16H342z"/>
	<path class="st0" d="M368,16c-13.2,0-24,10.8-24,24s10.8,24,24,24s24-10.8,24-24S381.2,16,368,16z M368,48c-4.4,0-8-3.6-8-8
		s3.6-8,8-8s8,3.6,8,8S372.4,48,368,48z"/>
</g>
</svg>
