<?xml version="1.0" encoding="utf-8"?>
<!-- Generator: Adobe Illustrator 27.0.1, SVG Export Plug-In . SVG Version: 6.00 Build 0)  -->
<svg version="1.1" id="Layer_1" xmlns="http://www.w3.org/2000/svg" xmlns:xlink="http://www.w3.org/1999/xlink" x="0px" y="0px"
	 viewBox="0 0 400 80" style="enable-background:new 0 0 400 80;" xml:space="preserve">
<style type="text/css">
	.st0{fill:none;stroke:#F30180;stroke-width:2;stroke-miterlimit:10;}
	.st1{fill:#F0F040;}
	.st2{fill:#FF6060;}
	.st3{fill:#FFFFFF;}
	.st4{fill:#F080F0;}
</style>
<g>
	<path class="st0" d="M28,4H4v64h16V52h8c13.2,0,24-10.8,24-24S41.2,4,28,4z M28,36h-8V20h8c4.4,0,8,3.6,8,8S32.4,36,28,36z"/>
	<path class="st1" d="M130,44l21.5,10.7c-4,7.9-12.1,13.3-21.5,13.3c-13.2,0-24-10.8-24-24s10.8-24,24-24c9.4,0,17.5,5.4,21.5,13.3
		L130,44z"/>
	<g>
		<path class="st2" d="M102,40v32l-8-8l-8,8l-8-8l-8,8l-8-8l-8,8V40c0-13.2,10.8-24,24-24S102,26.8,102,40z"/>
		<circle class="st3" cx="68" cy="40" r="8"/>
		<circle class="st3" cx="88" cy="40" r="8"/>
		<circle cx="90" cy="40" r="6"/>
		<circle cx="70" cy="40" r="6"/>
	</g>
	<polygon class="st0" points="212,4 212,68 196,68 196,42.6 195.3,43.3 184,54.6 172,42.6 172,68 156,68 156,4 184,32 	"/>
	<g>
		<path class="st4" d="M266,40v32l-8-8l-8,8l-8-8l-8,8l-8-8l-8,8V40c0-13.2,10.8-24,24-24S266,26.8,266,40z"/>
		<g>
			<path class="st3" d="M248.4,57c-2.1,0-3.1-1.3-4-2.4c-0.8-1-1.4-1.6-2.4-1.6s-1.6,0.6-2.4,1.6c-0.8,1.1-1.9,2.4-4,2.4
				c-2.3,0-3.3-2.5-4.1-4.6c-0.6-1.6-1.3-3.4-2.3-3.4c-2.2,0-2.2,2.9-2.2,3c0,0.6-0.4,1-1,1s-1-0.4-1-1c0-1.7,0.9-5,4.2-5
				c2.3,0,3.3,2.5,4.1,4.6c0.6,1.6,1.3,3.4,2.3,3.4c1.1,0,1.6-0.6,2.4-1.6c0.8-1.1,1.9-2.4,4-2.4s3.1,1.3,4,2.4
				c0.8,1,1.4,1.6,2.4,1.6c0.9,0,1.6-1.8,2.3-3.4c0.9-2.2,1.9-4.6,4.1-4.6c3.3,0,4.2,3.3,4.2,5c0,0.6-0.4,1-1,1s-1-0.4-1-1
				c0-0.3-0.1-3-2.2-3c-0.9,0-1.6,1.8-2.3,3.4C251.7,54.5,250.7,57,248.4,57z"/>
		</g>
		<g>
			<path class="st3" d="M238.7,39.3c0.4,0.4,0.4,1,0,1.4c-0.2,0.2-0.5,0.3-0.7,0.3s-0.5-0.1-0.7-0.3l-3.3-3.3l-3.3,3.3
				c-0.2,0.2-0.5,0.3-0.7,0.3s-0.5-0.1-0.7-0.3c-0.4-0.4-0.4-1,0-1.4l3.3-3.3l-3.3-3.3c-0.4-0.4-0.4-1,0-1.4s1-0.4,1.4,0l3.3,3.3
				l3.3-3.3c0.4-0.4,1-0.4,1.4,0s0.4,1,0,1.4l-3.3,3.3L238.7,39.3z"/>
		</g>
		<g>
			<path class="st3" d="M254.7,39.3c0.4,0.4,0.4,1,0,1.4c-0.2,0.2-0.5,0.3-0.7,0.3s-0.5-0.1-0.7-0.3l-3.3-3.3l-3.3,3.3
				c-0.2,0.2-0.5,0.3-0.7,0.3s-0.5-0.1-0.7-0.3c-0.4-0.4-0.4-1,0-1.4l3.3-3.3l-3.3-3.3c-0.4-0.4-0.4-1,0-1.4s1-0.4,1.4,0l3.3,3.3
				l3.3-3.3c0.4-0.4,1-0.4,1.4,0s0.4,1,0,1.4l-3.3,3.3L254.7,39.3z"/>
		</g>
	</g>
	<path class="st0" d="M300.9,48h16.7c-1.9,11.3-11.8,20-23.7,20c-13.2,0-24-10.8-24-24s10.8-24,24-24c11.9,0,21.8,8.6,23.7,20h-16.7
		c-1.4-2.4-4-4-6.9-4c-4.4,0-8,3.6-8,8s3.6,8,8,8C297,52,299.5,50.4,300.9,48z"/>
	<path class="st0" d="M346,20v16h-8v32h-16V36c0-8.8,7.2-16,16-16H346z"/>
	<path class="st0" d="M372,20c-13.2,0-24,10.8-24,24s10.8,24,24,24s24-10.8,24-24S385.2,20,372,20z M372,52c-4.4,0-8-3.6-8-8
		s3.6-8,8-8s8,3.6,8,8S376.4,52,372,52z"/>
</g>
</svg>
